<svg width="221" height="314" viewBox="0 0 221 314" fill="none" xmlns="http://www.w3.org/2000/svg">
<g clip-path="url(#clip0_197_2569)">
<path d="M220.83 196.57C220.655 195.058 220.655 193.532 220.83 192.02C220.171 190.107 219.813 188.103 219.77 186.08C217.753 182.378 216.988 178.123 217.59 173.95C217.349 172.355 217.302 170.736 217.45 169.13C216.945 166.555 216.945 163.905 217.45 161.33C216.691 157.542 217.038 153.616 218.45 150.02C218.037 148.622 217.854 147.166 217.91 145.71V145.61C218.06 144.54 218.2 143.47 218.35 142.4C218.35 142.24 218.35 142.08 218.41 141.93L218.54 140.93V140.79C218.562 140.699 218.589 140.609 218.62 140.52C218.67 140.38 218.7 140.24 218.74 140.1C218.86 139.65 219.06 139.23 219.22 138.79C217.21 135.446 216.253 131.574 216.475 127.679C216.696 123.784 218.084 120.045 220.46 116.95C220.201 114.419 220.419 111.861 221.1 109.41L148.01 36.32C147.663 36.0633 147.357 35.7567 147.1 35.41L132.53 20.81C132.267 20.6121 132.029 20.3839 131.82 20.13C131.126 19.7319 130.555 19.1507 130.17 18.45L123.71 11.95C123.051 11.73 122.453 11.3597 121.961 10.8686C121.47 10.3774 121.1 9.77881 120.88 9.12L115.17 3.39999C114.815 3.14292 114.501 2.83261 114.24 2.48L111.76 0L109.45 2.3C109.014 2.94324 108.465 3.50224 107.83 3.95L105.38 6.39C104.964 7.19112 104.311 7.84422 103.51 8.25999L99.64 12.13C99.3721 12.7775 98.9738 13.3629 98.47 13.85C96.47 15.85 94.32 17.71 92.19 19.59L79.49 32.28C78.9255 32.9177 78.3245 33.522 77.69 34.09L69.79 41.98C69.5937 42.5732 69.2495 43.1066 68.79 43.53C68.3649 43.9875 67.8321 44.3313 67.24 44.53L2 109.78V203.7L27.79 229.5C28.4508 229.881 28.9993 230.429 29.38 231.09L36.69 238.39C37.3329 238.921 37.9224 239.514 38.45 240.16L72.23 273.95C72.39 274.09 72.54 274.25 72.68 274.4L80.13 281.85L80.25 281.97L111.78 313.5L125.06 300.21C125.493 299.682 125.971 299.194 126.49 298.75L126.61 298.66L155.17 270.11C155.618 269.057 156.457 268.218 157.51 267.77L182.77 242.51C182.907 242.31 183.061 242.123 183.23 241.95L199.34 225.95C199.498 225.762 199.672 225.588 199.86 225.43L206.55 218.73C206.955 217.8 207.659 217.033 208.55 216.55C209.018 215.661 209.772 214.957 210.69 214.55L221.23 203.95C220.65 201.535 220.514 199.034 220.83 196.57Z" fill="lightenColor"/>
<mask id="mask0_197_2569" style="mask-type:alpha" maskUnits="userSpaceOnUse" x="2" y="0" width="220" height="314">
<path d="M220.83 196.57C220.655 195.058 220.655 193.532 220.83 192.02C220.171 190.107 219.813 188.103 219.77 186.08C217.753 182.378 216.988 178.123 217.59 173.95C217.349 172.355 217.302 170.736 217.45 169.13C216.945 166.555 216.945 163.905 217.45 161.33C216.691 157.542 217.038 153.616 218.45 150.02C218.037 148.622 217.854 147.166 217.91 145.71V145.61C218.06 144.54 218.2 143.47 218.35 142.4C218.35 142.24 218.35 142.08 218.41 141.93L218.54 140.93V140.79C218.562 140.699 218.589 140.609 218.62 140.52C218.67 140.38 218.7 140.24 218.74 140.1C218.86 139.65 219.06 139.23 219.22 138.79C217.21 135.446 216.253 131.574 216.475 127.679C216.696 123.784 218.084 120.045 220.46 116.95C220.201 114.419 220.419 111.861 221.1 109.41L148.01 36.32C147.663 36.0633 147.357 35.7567 147.1 35.41L132.53 20.81C132.267 20.6121 132.029 20.3839 131.82 20.13C131.126 19.7319 130.555 19.1507 130.17 18.45L123.71 11.95C123.051 11.73 122.453 11.3597 121.961 10.8686C121.47 10.3774 121.1 9.77881 120.88 9.12L115.17 3.39999C114.815 3.14292 114.501 2.83261 114.24 2.48L111.76 0L109.45 2.3C109.014 2.94324 108.465 3.50224 107.83 3.95L105.38 6.39C104.964 7.19112 104.311 7.84422 103.51 8.25999L99.64 12.13C99.3721 12.7775 98.9738 13.3629 98.47 13.85C96.47 15.85 94.32 17.71 92.19 19.59L79.49 32.28C78.9255 32.9177 78.3245 33.522 77.69 34.09L69.79 41.98C69.5937 42.5732 69.2495 43.1066 68.79 43.53C68.3649 43.9875 67.8321 44.3313 67.24 44.53L2 109.78V203.7L27.79 229.5C28.4508 229.881 28.9993 230.429 29.38 231.09L36.69 238.39C37.3329 238.921 37.9224 239.514 38.45 240.16L72.23 273.95C72.39 274.09 72.54 274.25 72.68 274.4L80.13 281.85L80.25 281.97L111.78 313.5L125.06 300.21C125.493 299.682 125.971 299.194 126.49 298.75L126.61 298.66L155.17 270.11C155.618 269.057 156.457 268.218 157.51 267.77L182.77 242.51C182.907 242.31 183.061 242.123 183.23 241.95L199.34 225.95C199.498 225.762 199.672 225.588 199.86 225.43L206.55 218.73C206.955 217.8 207.659 217.033 208.55 216.55C209.018 215.661 209.772 214.957 210.69 214.55L221.23 203.95C220.65 201.535 220.514 199.034 220.83 196.57Z" fill="lightenColor"/>
</mask>
<g mask="url(#mask0_197_2569)">
<path d="M34 1.16352V290C35.1864 193.196 35.3113 97.4424 34.4059 1L34 1.16352Z" fill="patternColor" stroke="patternColor" stroke-width="10" stroke-miterlimit="10"/>
<path d="M55 -9C55 94.4736 55 197.14 55 301V-9Z" fill="patternColor" stroke="patternColor" stroke-width="10" stroke-miterlimit="10"/>
<path d="M14 11V281C14 191.058 14 101.074 14 11.0467V11Z" fill="patternColor" stroke="patternColor" stroke-width="10" stroke-miterlimit="10"/>
<path d="M75 -17.9766V312C75 202.285 75 92.2845 75 -18V-17.9766Z" fill="patternColor" stroke="patternColor" stroke-width="10" stroke-miterlimit="10"/>
<path d="M156 304.918V-12C156 94.3348 156 199.248 156 305V304.918Z" fill="patternColor" stroke="patternColor" stroke-width="10" stroke-miterlimit="10"/>
<path d="M135 314.907C136.333 202.706 136.333 90.4033 135 -22V315V314.907Z" fill="patternColor" stroke="patternColor" stroke-width="10" stroke-miterlimit="10"/>
<path d="M176 294.988C176 196.001 176 96.2556 176 -3V295V294.988Z" fill="patternColor" stroke="patternColor" stroke-width="10" stroke-miterlimit="10"/>
<path d="M95 -27.9767C95 88.7568 95 204.418 95 321V-28V-27.9767Z" fill="patternColor" stroke="patternColor" stroke-width="10" stroke-miterlimit="10"/>
<path d="M196 285.942C196 193.171 196 99.7588 196 7V286V285.942Z" fill="patternColor" stroke="patternColor" stroke-width="10" stroke-miterlimit="10"/>
<path d="M115 325V-32C115 87.42 115 205.65 115 325Z" fill="patternColor" stroke="patternColor" stroke-width="10" stroke-miterlimit="10"/>
<path d="M216 274.953V17C216 103.027 216 188.739 216 275V274.953Z" fill="patternColor" stroke="patternColor" stroke-width="10" stroke-miterlimit="10"/>
</g>
<path d="M2.22998 204.25V109.26L49.72 156.76L2.22998 204.25Z" fill="darkenColor"/>
<path d="M221.23 204.25V109.26L173.74 156.76L221.23 204.25Z" fill="darkenColor"/>
</g>
<defs>
<clipPath id="clip0_197_2569">
<rect width="221" height="314" fill="patternColor"/>
</clipPath>
</defs>
</svg>
