<svg width="263" height="353" viewBox="0 0 263 353" fill="none" xmlns="http://www.w3.org/2000/svg">
<path d="M1 24.0474C12.3053 17.7205 24.2484 12.6286 36.6261 8.85831C36.6261 8.85831 62.0753 1 88.2819 1C134.484 1 178.794 19.504 211.464 52.4415C244.134 85.3789 262.488 130.052 262.488 176.632C262.488 223.213 244.134 267.886 211.464 300.823C178.794 333.76 134.484 352.264 88.2819 352.264C61.6759 352.264 36.4746 344.365 36.4746 344.365C24.6794 340.659 13.3128 335.688 2.56992 329.536" fill="darkenColor"/>
<path d="M225.352 283.372C232.806 273.764 239.236 263.391 244.535 252.424C245.102 250.584 245.903 248.824 246.918 247.19C256.323 225.961 261.449 203.06 262 179.817C262.551 156.573 258.515 133.451 250.126 111.794C249.698 110.859 249.325 109.899 249.011 108.92C236.59 78.4673 215.932 52.1461 189.392 32.957C162.852 13.7679 131.498 2.48295 98.9047 0.388749C97.9838 0.385742 97.064 0.325478 96.1505 0.208272C93.3962 0.0833165 90.642 0 87.8878 0C85.1335 0 82.4757 0.124967 79.7765 0.249922C78.1146 0.602415 76.4208 0.77922 74.7225 0.777499C74.1992 0.777499 73.7034 0.777516 73.2076 0.708096C50.8506 2.6069 29.071 8.85903 9.07516 19.1182C31.8651 35.3916 50.8493 56.493 64.6971 80.9436C80.1734 105.239 89.4502 133.016 91.7016 161.801C93.9529 190.586 89.1088 219.486 77.6007 245.927C67.6716 269.696 53.2945 291.744 36.8379 308.28C28.1027 317.029 18.4945 324.846 8.16626 331.605C15.4442 335.376 22.9775 338.624 30.7097 341.324C32.6081 341.591 34.4614 342.119 36.2182 342.892C37.3355 343.258 38.4185 343.723 39.4545 344.281C42.5254 345.183 45.6652 345.947 48.8051 346.683C49.2595 346.78 49.6727 346.905 50.1822 347.016C62.58 349.865 75.2547 351.308 87.9704 351.32C92.1017 351.32 96.2331 351.112 100.227 350.806C101.457 350.61 102.7 350.508 103.945 350.501H104.014C108.696 350.043 113.337 349.404 117.923 348.613C119.185 348.263 120.475 348.026 121.779 347.905C127.952 346.665 134.052 345.085 140.053 343.17C140.425 343.045 140.811 342.948 141.196 342.837C142.284 342.49 143.344 342.073 144.432 341.698L145.562 341.296C157.798 336.943 169.508 331.215 180.472 324.219C181.51 323.398 182.632 322.691 183.818 322.108C190.033 317.951 195.968 313.382 201.583 308.432C202.431 307.305 203.401 306.275 204.475 305.364C205.91 303.628 207.634 302.157 209.57 301.018C209.832 300.838 210.052 300.616 210.314 300.435C214.946 295.821 219.314 290.944 223.396 285.829C223.985 284.961 224.639 284.14 225.352 283.372Z" fill="lightenColor"/>
<path d="M26.6799 11.0802V36.9902C30.1999 40.2702 33.5599 43.7002 36.8299 47.2402V7.66016C35.7799 8.04016 34.6599 8.33016 33.5599 8.66016C31.4302 9.87275 29.0998 10.6925 26.6799 11.0802Z" fill="patternColor"/>
<path d="M34.32 344.44C35.1768 344.693 36.0154 345.003 36.83 345.37V307.54C36.12 308.27 35.43 309.05 34.71 309.77C32.14 312.35 29.44 314.82 26.71 317.24V342.12C27.1 342.26 27.43 342.46 27.8 342.62C30.0574 342.87 32.2593 343.485 34.32 344.44Z" fill="patternColor"/>
<path d="M49.7399 4.5C49.2699 4.5 48.8499 4.44001 48.3899 4.43001V60.98C51.9766 65.68 55.3599 70.54 58.5399 75.56V3.76001C55.6304 4.23654 52.6881 4.48396 49.7399 4.5Z" fill="patternColor"/>
<path d="M53.17 350.81C54.6229 350.894 56.0654 351.108 57.48 351.45H58.15V281C54.93 285.953 51.5467 290.69 48 295.21V349.46C48.33 349.55 48.61 349.72 48.92 349.83C50.3654 350.016 51.789 350.345 53.17 350.81Z" fill="patternColor"/>
<path d="M250.18 241.12C250.435 240.328 250.732 239.55 251.07 238.79C251.472 237.227 252.031 235.71 252.74 234.26V120.56C252.249 119.295 251.867 117.99 251.6 116.66C249.555 113.772 248.21 110.447 247.67 106.95C246.441 105.046 245.51 102.965 244.91 100.78V251.42C245.596 249.938 246.459 248.544 247.48 247.27C248.07 245.097 248.98 243.025 250.18 241.12Z" fill="patternColor"/>
<path d="M226.89 283.05C227.62 281.796 228.485 280.626 229.47 279.56C230.171 277.88 231.085 276.297 232.19 274.85V78.66C230.384 76.8762 228.929 74.7699 227.9 72.45C226.445 70.835 225.257 68.9987 224.38 67.01C223.502 66.0908 222.718 65.0858 222.04 64.01V288.31C223.311 286.267 224.956 284.482 226.89 283.05Z" fill="patternColor"/>
<path d="M187.62 320.5V33.5C184.47 32.0911 181.763 29.851 179.79 27.02V325.35C180.936 324.512 182.174 323.808 183.48 323.25C184.737 322.16 186.128 321.236 187.62 320.5Z" fill="patternColor"/>
<path d="M161 336.5C162.267 335.6 163.636 334.855 165.08 334.28C165.716 333.79 166.384 333.342 167.08 332.94V20.1202C163.337 19.6333 159.812 18.0857 156.92 15.6602V338.18C157.87 337.731 158.853 337.353 159.86 337.05C160.21 336.83 160.63 336.66 161 336.5Z" fill="patternColor"/>
<path d="M141.05 343.93C142.422 343.243 143.868 342.716 145.36 342.36V10.2402C141.744 10.0408 138.244 8.89597 135.21 6.92017V345.66C135.73 345.53 136.26 345.43 136.8 345.34C138.164 344.724 139.588 344.251 141.05 343.93Z" fill="patternColor"/>
<path d="M115.41 350.11C117.096 349.625 118.829 349.323 120.58 349.21C121.425 348.966 122.283 348.773 123.15 348.63V4.58C122.65 4.58 122.15 4.65001 121.66 4.65001C118.693 4.67829 115.749 4.11745 113 3V350.49C113.795 350.315 114.6 350.188 115.41 350.11Z" fill="patternColor"/>
<path d="M203.57 306.86C205.108 304.99 206.988 303.429 209.11 302.26C209.57 301.93 209.98 301.54 210.48 301.26V51.3501C206.081 49.6085 202.473 46.3138 200.34 42.0901V310.4C201.26 309.086 202.345 307.896 203.57 306.86Z" fill="patternColor"/>
<path d="M102 351.87V1.71017C100.542 1.97842 99.0626 2.11564 97.58 2.12018C95.6492 2.12151 93.7253 1.88983 91.85 1.43018V352.32H97.5C98.983 352.033 100.489 351.882 102 351.87Z" fill="patternColor"/>
<path d="M72.88 2.4901C71.9477 2.48837 71.0163 2.43495 70.09 2.33009V96.4701C74.051 104.77 77.4422 113.33 80.24 122.09V1.34009C77.866 2.12308 75.3797 2.51158 72.88 2.4901Z" fill="patternColor"/>
<path d="M72.5 352.32H80.24V235.8C77.3715 244.008 73.9813 252.025 70.09 259.8V352.07C70.92 352.1 71.73 352.19 72.5 352.32Z" fill="patternColor"/>
</svg>
