<svg width="24" height="25" viewBox="0 0 24 25" fill="#000000" xmlns="http://www.w3.org/2000/svg">
<path d="M5 3.74487H19C19.5304 3.74487 20.0391 3.95559 20.4142 4.33066C20.7893 4.70573 21 5.21444 21 5.74487V19.7449C21 20.2753 20.7893 20.784 20.4142 21.1591C20.0391 21.5342 19.5304 21.7449 19 21.7449H5C4.46957 21.7449 3.96086 21.5342 3.58579 21.1591C3.21071 20.784 3 20.2753 3 19.7449V5.74487C3 5.21444 3.21071 4.70573 3.58579 4.33066C3.96086 3.95559 4.46957 3.74487 5 3.74487ZM12 10.7449C11.4696 10.7449 10.9609 10.9556 10.5858 11.3307C10.2107 11.7057 10 12.2144 10 12.7449C10 13.2753 10.2107 13.784 10.5858 14.1591C10.9609 14.5342 11.4696 14.7449 12 14.7449C12.5304 14.7449 13.0391 14.5342 13.4142 14.1591C13.7893 13.784 14 13.2753 14 12.7449C14 12.2144 13.7893 11.7057 13.4142 11.3307C13.0391 10.9556 12.5304 10.7449 12 10.7449ZM7 5.74487C6.46957 5.74487 5.96086 5.95559 5.58579 6.33066C5.21071 6.70573 5 7.21444 5 7.74487C5 8.27531 5.21071 8.78401 5.58579 9.15909C5.96086 9.53416 6.46957 9.74487 7 9.74487C7.53043 9.74487 8.03914 9.53416 8.41421 9.15909C8.78929 8.78401 9 8.27531 9 7.74487C9 7.21444 8.78929 6.70573 8.41421 6.33066C8.03914 5.95559 7.53043 5.74487 7 5.74487ZM17 15.7449C16.4696 15.7449 15.9609 15.9556 15.5858 16.3307C15.2107 16.7057 15 17.2144 15 17.7449C15 18.2753 15.2107 18.784 15.5858 19.1591C15.9609 19.5342 16.4696 19.7449 17 19.7449C17.5304 19.7449 18.0391 19.5342 18.4142 19.1591C18.7893 18.784 19 18.2753 19 17.7449C19 17.2144 18.7893 16.7057 18.4142 16.3307C18.0391 15.9556 17.5304 15.7449 17 15.7449Z" fill="#000000"/>
</svg>
