<svg width="24" height="25" viewBox="0 0 24 25" fill="#000000" xmlns="http://www.w3.org/2000/svg">
<path d="M5.656 21.2239C5.51242 21.3487 5.3362 21.43 5.14803 21.4582C4.95987 21.4864 4.76756 21.4604 4.59369 21.3831C4.41982 21.3058 4.2716 21.1805 4.16644 21.022C4.06128 20.8634 4.00354 20.6781 4 20.4879V18.2449C3.46957 18.2449 2.96086 18.0342 2.58579 17.6591C2.21071 17.284 2 16.7753 2 16.2449V9.24487C2 8.71444 2.21071 8.20573 2.58579 7.83066C2.96086 7.45559 3.46957 7.24487 4 7.24487H15C15.5304 7.24487 16.0391 7.45559 16.4142 7.83066C16.7893 8.20573 17 8.71444 17 9.24487V16.2449C17 16.7753 16.7893 17.284 16.4142 17.6591C16.0391 18.0342 15.5304 18.2449 15 18.2449H10.003L5.656 21.2239ZM18 13.2619C17.9968 13.3849 17.9968 13.5079 18 13.6309V13.2609C18.005 13.1539 18.006 11.8139 18.004 9.24187C18.0032 8.44674 17.6868 7.68445 17.1243 7.12249C16.5617 6.56053 15.7991 6.24487 15.004 6.24487H7V5.24487C7 4.71444 7.21071 4.20573 7.58579 3.83066C7.96086 3.45559 8.46957 3.24487 9 3.24487H20C20.5304 3.24487 21.0391 3.45559 21.4142 3.83066C21.7893 4.20573 22 4.71444 22 5.24487V12.2449C22 12.7753 21.7893 13.284 21.4142 13.6591C21.0391 14.0342 20.5304 14.2449 20 14.2449V16.4879C19.9965 16.6781 19.9387 16.8634 19.8336 17.022C19.7284 17.1805 19.5802 17.3058 19.4063 17.3831C19.2324 17.4603 19.0401 17.4864 18.852 17.4582C18.6638 17.43 18.4876 17.3487 18.344 17.2239L18 16.9879V13.2619Z" fill="#000000"/>
</svg>
