<svg width="24" height="24" viewBox="0 0 24 24" fill="none" xmlns="http://www.w3.org/2000/svg">
<path d="M20 4.57819H4C2.9 4.57819 2 5.44069 2 6.49485V17.9949C2 19.049 2.9 19.9115 4 19.9115H20C21.1 19.9115 22 19.049 22 17.9949V6.49485C22 5.44069 21.1 4.57819 20 4.57819ZM19.6 8.6511L13.06 12.5707C12.41 12.9636 11.59 12.9636 10.94 12.5707L4.4 8.6511C4.29973 8.59716 4.21192 8.52428 4.14189 8.43687C4.07186 8.34946 4.02106 8.24935 3.99258 8.14258C3.96409 8.03582 3.9585 7.92462 3.97616 7.81573C3.99381 7.70684 4.03434 7.60251 4.09528 7.50906C4.15623 7.41561 4.23632 7.33498 4.33073 7.27206C4.42513 7.20913 4.53187 7.16522 4.6445 7.14297C4.75712 7.12073 4.87328 7.12061 4.98595 7.14264C5.09863 7.16466 5.20546 7.20836 5.3 7.2711L12 11.2865L18.7 7.2711C18.7945 7.20836 18.9014 7.16466 19.014 7.14264C19.1267 7.12061 19.2429 7.12073 19.3555 7.14297C19.4681 7.16522 19.5749 7.20913 19.6693 7.27206C19.7637 7.33498 19.8438 7.41561 19.9047 7.50906C19.9657 7.60251 20.0062 7.70684 20.0238 7.81573C20.0415 7.92462 20.0359 8.03582 20.0074 8.14258C19.9789 8.24935 19.9281 8.34946 19.8581 8.43687C19.7881 8.52428 19.7003 8.59716 19.6 8.6511Z" />
</svg>
