<svg width="20" height="21" viewBox="0 0 20 21" fill="#000000" xmlns="http://www.w3.org/2000/svg">
<path d="M16.6666 19.3301H3.33331V17.6635C3.33331 16.5584 3.7723 15.4986 4.5537 14.7172C5.3351 13.9358 6.39491 13.4968 7.49998 13.4968H12.5C13.605 13.4968 14.6649 13.9358 15.4463 14.7172C16.2277 15.4986 16.6666 16.5584 16.6666 17.6635V19.3301ZM9.99998 11.8301C9.34337 11.8301 8.69319 11.7008 8.08656 11.4495C7.47993 11.1983 6.92874 10.83 6.46445 10.3657C6.00015 9.90138 5.63186 9.35018 5.38058 8.74356C5.12931 8.13693 4.99998 7.48675 4.99998 6.83014C4.99998 6.17353 5.12931 5.52335 5.38058 4.91672C5.63186 4.31009 6.00015 3.7589 6.46445 3.29461C6.92874 2.83031 7.47993 2.46201 8.08656 2.21074C8.69319 1.95947 9.34337 1.83014 9.99998 1.83014C11.3261 1.83014 12.5978 2.35692 13.5355 3.29461C14.4732 4.23229 15 5.50406 15 6.83014C15 8.15622 14.4732 9.42799 13.5355 10.3657C12.5978 11.3034 11.3261 11.8301 9.99998 11.8301Z" fill="#000000"/>
</svg>
